REM DIRINDEX 1\5,1\2\6,1\2\7,1\3\8,1\3\9,1\4\10,1\4\11,1\4\12
REM DIRNAME folder01,folder02,folder03,folder04,folder05,folder06,folder07,folder08,folder09,folder10,folder11,folder12
TITLE ""
FILE "EJE_DB3000_5th_6C_51.mp3" MP3
  TRACK 01 AUDIO
    TITLE "0:"
    INDEX 01 00:00:00
  TRACK 02 AUDIO
    TITLE "10:cjc026_12141"
    INDEX 01 00:00:05
  TRACK 03 AUDIO
    TITLE "0:"
    INDEX 01 00:01:11
  TRACK 04 AUDIO
    TITLE "11:cjc026_12142"
    INDEX 01 00:01:38
  TRACK 05 AUDIO
    TITLE "0:"
    INDEX 01 00:02:67
  TRACK 06 AUDIO
    TITLE "12:cjc026_12143"
    INDEX 01 00:03:15
  TRACK 07 AUDIO
    TITLE "0:"
    INDEX 01 00:04:21
  TRACK 08 AUDIO
    TITLE "10:cjc026_12144"
    INDEX 01 00:04:48
  TRACK 09 AUDIO
    TITLE "0:"
    INDEX 01 00:05:56
  TRACK 10 AUDIO
    TITLE "11:cjc026_12145"
    INDEX 01 00:06:06
  TRACK 11 AUDIO
    TITLE "0:"
    INDEX 01 00:07:39
  TRACK 12 AUDIO
    TITLE "12:cjc026_12146"
    INDEX 01 00:07:64
  TRACK 13 AUDIO
    TITLE "0:"
    INDEX 01 00:08:72
  TRACK 14 AUDIO
    TITLE "10:cjc026_12147"
    INDEX 01 00:09:20
  TRACK 15 AUDIO
    TITLE "0:"
    INDEX 01 00:10:29
  TRACK 16 AUDIO
    TITLE "11:cjc026_12148"
    INDEX 01 00:10:55
  TRACK 17 AUDIO
    TITLE "0:"
    INDEX 01 00:12:07
  TRACK 18 AUDIO
    TITLE "12:cjc026_12149"
    INDEX 01 00:12:30
  TRACK 19 AUDIO
    TITLE "0:"
    INDEX 01 00:13:39
  TRACK 20 AUDIO
    TITLE "10:cjc026_12150"
    INDEX 01 00:13:65
  TRACK 21 AUDIO
    TITLE "0:"
    INDEX 01 00:15:11
  TRACK 22 AUDIO
    TITLE "11:cjc026_12151"
    INDEX 01 00:15:36
  TRACK 23 AUDIO
    TITLE "0:"
    INDEX 01 00:16:67
  TRACK 24 AUDIO
    TITLE "12:cjc026_12152"
    INDEX 01 00:17:16
  TRACK 25 AUDIO
    TITLE "0:"
    INDEX 01 00:18:37
  TRACK 26 AUDIO
    TITLE "10:cjc026_12153"
    INDEX 01 00:18:64
  TRACK 27 AUDIO
    TITLE "0:"
    INDEX 01 00:21:51
  TRACK 28 AUDIO
    TITLE "11:cjc026_12154"
    INDEX 01 00:22:01
  TRACK 29 AUDIO
    TITLE "0:"
    INDEX 01 00:23:38
  TRACK 30 AUDIO
    TITLE "12:cjc026_12155"
    INDEX 01 00:23:63
  TRACK 31 AUDIO
    TITLE "0:"
    INDEX 01 00:26:48
  TRACK 32 AUDIO
    TITLE "10:cjc026_12156"
    INDEX 01 00:27:00
  TRACK 33 AUDIO
    TITLE "0:"
    INDEX 01 00:28:21
  TRACK 34 AUDIO
    TITLE "11:cjc026_12157"
    INDEX 01 00:28:47
  TRACK 35 AUDIO
    TITLE "0:"
    INDEX 01 00:30:10
  TRACK 36 AUDIO
    TITLE "12:cjc026_12158"
    INDEX 01 00:30:38
  TRACK 37 AUDIO
    TITLE "0:"
    INDEX 01 00:31:59
  TRACK 38 AUDIO
    TITLE "10:cjc026_12159"
    INDEX 01 00:32:09
  TRACK 39 AUDIO
    TITLE "0:"
    INDEX 01 00:33:21
  TRACK 40 AUDIO
    TITLE "11:cjc026_12160"
    INDEX 01 00:33:50
  TRACK 41 AUDIO
    TITLE "0:"
    INDEX 01 00:35:14
  TRACK 42 AUDIO
    TITLE "12:cjc026_12161"
    INDEX 01 00:35:39
  TRACK 43 AUDIO
    TITLE "0:"
    INDEX 01 00:36:50
  TRACK 44 AUDIO
    TITLE "10:cjc026_12162"
    INDEX 01 00:37:05
  TRACK 45 AUDIO
    TITLE "0:"
    INDEX 01 00:38:18
  TRACK 46 AUDIO
    TITLE "11:cjc026_12163"
    INDEX 01 00:38:45
  TRACK 47 AUDIO
    TITLE "0:"
    INDEX 01 00:40:21
  TRACK 48 AUDIO
    TITLE "12:cjc026_12164"
    INDEX 01 00:40:46
  TRACK 49 AUDIO
    TITLE "0:"
    INDEX 01 00:41:61
  TRACK 50 AUDIO
    TITLE "10:cjc026_12165"
    INDEX 01 00:42:14
  TRACK 51 AUDIO
    TITLE "0:"
    INDEX 01 00:43:29
  TRACK 52 AUDIO
    TITLE "11:cjc026_12166"
    INDEX 01 00:43:58
  TRACK 53 AUDIO
    TITLE "0:"
    INDEX 01 00:45:22
  TRACK 54 AUDIO
    TITLE "12:cjc026_12167"
    INDEX 01 00:45:47
  TRACK 55 AUDIO
    TITLE "0:"
    INDEX 01 00:46:64
  TRACK 56 AUDIO
    TITLE "10:cjc026_12168"
    INDEX 01 00:47:17
  TRACK 57 AUDIO
    TITLE "0:"
    INDEX 01 00:48:22
  TRACK 58 AUDIO
    TITLE "11:cjc026_12169"
    INDEX 01 00:48:49
  TRACK 59 AUDIO
    TITLE "0:"
    INDEX 01 00:50:39
  TRACK 60 AUDIO
    TITLE "12:cjc026_12170"
    INDEX 01 00:50:62
  TRACK 61 AUDIO
    TITLE "0:"
    INDEX 01 00:51:69
  TRACK 62 AUDIO
    TITLE "10:cjc026_12171"
    INDEX 01 00:52:22
  TRACK 63 AUDIO
    TITLE "0:"
    INDEX 01 00:53:19
  TRACK 64 AUDIO
    TITLE "11:cjc026_12172"
    INDEX 01 00:53:53
  TRACK 65 AUDIO
    TITLE "0:"
    INDEX 01 00:55:08
  TRACK 66 AUDIO
    TITLE "12:cjc026_12173"
    INDEX 01 00:55:34
  TRACK 67 AUDIO
    TITLE "0:"
    INDEX 01 00:56:33
